<svg height="256" preserveAspectRatio="xMidYMid" viewBox="0 0 256 256" width="256" xmlns="http://www.w3.org/2000/svg" xmlns:xlink="http://www.w3.org/1999/xlink"><defs><linearGradient id="a"><stop offset="0" stop-color="#fff" stop-opacity=".1"/><stop offset="1" stop-color="#fff" stop-opacity="0"/></linearGradient><linearGradient id="b" x1="0%" x2="99.934254%" xlink:href="#a" y1="50%" y2="50%"/><path id="c" d="m80.6286813 20.1571703v67.1905677h-60.471511c-11.08644366 0-20.1571703 9.0707267-20.1571703 20.15717v47.033398c0 11.086443 9.07072664 20.15717 20.1571703 20.15717h147.8192487v-174.695476h-67.190567c-11.0864441 0-20.1571707 9.07072664-20.1571707 20.1571703z"/><filter id="d" height="121.8%" width="122.6%" x="-11.3%" y="-9.7%"><feOffset dx="0" dy="2" in="SourceAlpha" result="shadowOffsetOuter1"/><feGaussianBlur in="shadowOffsetOuter1" result="shadowBlurOuter1" stdDeviation="6"/><feColorMatrix in="shadowBlurOuter1" type="matrix" values="0 0 0 0 0   0 0 0 0 0   0 0 0 0 0  0 0 0 0.2 0"/></filter><linearGradient id="e" x1="-49.614644%" x2="93.179383%" y1="25.240385%" y2="96.500096%"><stop offset="0" stop-color="#bf360c" stop-opacity=".2"/><stop offset="1" stop-color="#bf360c" stop-opacity=".02"/></linearGradient><linearGradient id="f" x1="33.529671%" x2="98.217829%" xlink:href="#a" y1="33.575592%" y2="98.26375%"/><mask id="g" fill="#fff"><path d="m234.831034 0h-46.193515c-11.25442 0-20.493123 9.23870306-20.493123 20.4931232v60.1355581h-67.190568c-11.0864437 0-20.1571703 9.0707266-20.1571703 20.1571707v67.190567h-60.6394874c-11.08644366 0-20.1571703 9.070727-20.1571703 20.157171v47.033397c0 11.086444 9.07072664 20.15717 20.1571703 20.15717h214.6738637c11.25442 0 20.493123-9.238703 20.493123-20.493123v-214.3379108c0-11.25442014-9.238703-20.4931232-20.493123-20.4931232z" fill="#fff"/></mask></defs><path d="m234.831034 0h-46.529468c-11.25442 0-20.493123 9.23870306-20.493123 20.4931232v60.1355581h-67.358544c-10.9184675 0-19.8212177 8.9027502-19.8212177 19.9891937v67.358544h-60.6394874c-11.08644368 0-19.9891939 8.902751-19.9891939 19.989194v47.033398c0 11.086443 8.90275022 19.989194 19.9891939 20.325146h147.9872251 20.493123 46.529469c11.25442 0 20.493123-9.238703 20.493123-20.493123v-214.3379108c-.167977-11.25442014-9.40668-20.4931232-20.6611-20.4931232z" fill="url(#b)"/><path d="m234.831034 0h-46.529468c-11.25442 0-20.493123 9.23870306-20.493123 20.4931232v60.1355581h-67.358544c-10.9184675 0-19.8212177 8.9027502-19.8212177 19.9891937v67.358544h-60.6394874c-11.08644368 0-19.9891939 8.902751-19.9891939 19.989194v47.033398c0 11.086443 8.90275022 19.989194 19.9891939 20.325146h147.9872251 20.493123 46.529469c11.25442 0 20.493123-9.238703 20.493123-20.493123v-214.3379108c-.167977-11.25442014-9.40668-20.4931232-20.6611-20.4931232z" fill="url(#b)"/><g mask="url(#g)"><path d="m234.831034 0h-46.193515c-11.25442 0-20.493123 9.23870306-20.493123 20.4931232v60.1355581 174.6954757h20.493123 46.193515c11.25442 0 20.493123-9.238703 20.493123-20.493123v-214.3379108c0-11.25442014-9.238703-20.4931232-20.493123-20.4931232z" fill="#f57c00"/><g transform="translate(0 80.628681)"><use filter="url(#d)" xlink:href="#c"/><use fill="#ffc107" fill-rule="evenodd" xlink:href="#c"/></g></g><path d="m167.976419 80.6286813v174.6954757h20.493123 46.193516c11.25442 0 20.493123-9.238703 20.493123-20.493123v-66.854615z" fill="url(#e)" mask="url(#g)"/><g fill="#fff"><path d="m100.785852 82.3084455h67.190567v-1.6797642h-67.190567c-11.0864441 0-20.1571707 9.0707266-20.1571707 20.1571707v1.679764c0-11.0864439 9.0707266-20.1571705 20.1571707-20.1571705z" mask="url(#g)" opacity=".2"/><path d="m20.1571703 169.656184h60.471511v-1.679765h-60.471511c-11.08644366 0-20.1571703 9.070727-20.1571703 20.157171v1.679764c0-11.086444 9.07072664-20.15717 20.1571703-20.15717z" mask="url(#g)" opacity=".2"/><path d="m234.831034 0h-46.193515c-11.25442 0-20.493123 9.23870306-20.493123 20.4931232v1.6797642c0-11.2544201 9.238703-20.49312321 20.493123-20.49312321h46.193515c11.25442 0 20.493123 9.23870311 20.493123 20.49312321v-1.6797642c0-11.25442014-9.238703-20.4931232-20.493123-20.4931232z" mask="url(#g)" opacity=".2"/></g><path d="m234.831034 253.644393h-46.193515-20.6611-147.8192487c-11.08644366 0-20.1571703-9.070726-20.1571703-20.15717v1.679764c0 11.086444 9.07072664 20.15717 20.1571703 20.15717h147.8192487 20.493123 46.193516c11.25442 0 20.493123-9.238703 20.493123-20.493123l.002255-1.679764c.165721 11.25442-9.072982 20.493123-20.327402 20.493123z" fill="#bf360c" mask="url(#g)" opacity=".2"/><path d="m234.831034 0h-46.193515c-11.25442 0-20.493123 9.23870306-20.493123 20.4931232v60.1355581h-67.190568c-11.0864437 0-20.1571703 9.0707266-20.1571703 20.1571707v67.190567h-60.6394874c-11.08644366 0-20.1571703 9.070727-20.1571703 20.157171v47.033397c0 11.086444 9.07072664 20.15717 20.1571703 20.15717h214.6738637c11.25442 0 20.493123-9.238703 20.493123-20.493123v-214.3379108c0-11.25442014-9.238703-20.4931232-20.493123-20.4931232z" fill="url(#f)"/></svg>