<svg enable-background="new 0 0 512 512" height="512" viewBox="0 0 512 512" width="512" xmlns="http://www.w3.org/2000/svg"><path d="m161.501 129.132c-3.527-63.7 25.063-104.997 68.255-128.633 13.634 7.573 43.881-3.829 43.314 18.376-.53 20.81-34.111 14.148-44.627 1.311-38.01 20.195-56.441 54.408-56.441 101.07 0 35.3 14.58 67.958 26.252 97.131 5.159 12.897 9.17 27.861 18.376 43.317 9.387 15.756 38.757 37.665 14.439 44.623-3.063 0-6.126 0-9.189 0-12.779-24.624-23.802-53.168-35.439-82.69-11.462-29.073-23.017-59.802-24.94-94.505zm200.055 336.419c-19.555 23.124-57.061 45.377-93.195 45.941-30.981.481-75.375-18.57-94.505-35.441-23.97-21.138-46.852-63.73-49.878-98.441-2.242-25.723 2.351-49.906 19.689-65.631 14.306-12.975 35.716-16.134 54.604-24.683 3.842 8.645 7.793 17.042 11.964 25.078 2.256 4.347 6.748 7.08 11.646 7.08h9.189c1.222 0 2.437-.173 3.612-.51 12.058-3.452 16.471-10.359 18.049-15.549 3.266-10.728-2.7-20.584-10.254-30.065 15.197-5.342 24.837-15.315 37.701-19.106 16.072-4.735 39.357.58 51.189 6.565 61.094 30.901 76.539 149.955 30.189 204.762zm-39.378-198.202c-11.678-12.732-50.392-11.752-48.567 11.818 11.674-.847 28.18-.458 42.004-5.252-5.298-2.436 5.313-1.738 6.563-6.566z"/></svg>